<svg xmlns="http://www.w3.org/2000/svg" viewBox="0 0 1200 640" role="img" aria-labelledby="title desc">
  <title id="title">Smart home buying checklist illustration</title>
  <desc id="desc">A homeowner-friendly checklist scene with simple smart home icons for compatibility, subscription, privacy, Wi-Fi, and installation questions</desc>
  <defs>
    <linearGradient id="bg" x1="0" y1="0" x2="1" y2="1">
      <stop offset="0" stop-color="#f5efe6" />
      <stop offset="1" stop-color="#e2eee9" />
    </linearGradient>
    <linearGradient id="board" x1="0" y1="0" x2="0" y2="1">
      <stop offset="0" stop-color="#fffaf1" />
      <stop offset="1" stop-color="#f0e4d3" />
    </linearGradient>
    <filter id="shadow" x="-20%" y="-20%" width="140%" height="140%">
      <feDropShadow dx="0" dy="14" stdDeviation="16" flood-color="#4d625a" flood-opacity=".18" />
    </filter>
  </defs>

  <rect width="1200" height="640" fill="url(#bg)" />
  <ellipse cx="594" cy="552" rx="420" ry="52" fill="#cfdfd5" opacity=".65" />

  <g filter="url(#shadow)">
    <rect x="272" y="96" width="462" height="438" rx="34" fill="url(#board)" stroke="#5b6f67" stroke-width="8" />
    <rect x="424" y="72" width="158" height="58" rx="22" fill="#7f9d91" stroke="#5b6f67" stroke-width="8" />
    <rect x="459" y="52" width="88" height="34" rx="17" fill="#f5efe6" stroke="#5b6f67" stroke-width="7" />
  </g>

  <g fill="none" stroke="#5b6f67" stroke-linecap="round" stroke-linejoin="round">
    <path d="M348 185l22 22 45-52" stroke-width="12" />
    <path d="M348 283l22 22 45-52" stroke-width="12" />
    <path d="M348 381l22 22 45-52" stroke-width="12" />
    <path d="M448 180h206" stroke-width="12" opacity=".72" />
    <path d="M448 210h154" stroke-width="10" opacity=".38" />
    <path d="M448 278h206" stroke-width="12" opacity=".72" />
    <path d="M448 308h134" stroke-width="10" opacity=".38" />
    <path d="M448 376h206" stroke-width="12" opacity=".72" />
    <path d="M448 406h176" stroke-width="10" opacity=".38" />
  </g>

  <g transform="translate(760 145)" fill="none" stroke="#5b6f67" stroke-linecap="round" stroke-linejoin="round">
    <rect x="0" y="182" width="82" height="108" rx="24" fill="#fffaf1" stroke-width="8" />
    <path d="M28 182v-48M54 182v-48" stroke-width="9" />
    <path d="M15 134h52" stroke-width="9" />
    <path d="M82 240c56 0 56-82 117-82" stroke-width="8" opacity=".6" />
    <circle cx="216" cy="158" r="13" fill="#d69666" stroke="none" />

    <path d="M286 35c42 20 67 55 67 98" stroke="#7fa39a" stroke-width="8" />
    <path d="M286 76c23 13 36 34 36 58" stroke="#7fa39a" stroke-width="8" />
    <circle cx="286" cy="135" r="11" fill="#7fa39a" stroke="none" />

    <path d="M226 247c34 19 56 48 56 91 0 48-31 80-56 91-25-11-56-43-56-91 0-43 22-72 56-91z" fill="#e1ece6" stroke-width="8" />
    <path d="M207 339h38" stroke-width="8" />
    <path d="M214 339v-19c0-14 9-24 22-24s22 10 22 24v19" stroke-width="8" />
  </g>

  <g transform="translate(765 380)" fill="none" stroke="#5b6f67" stroke-linecap="round" stroke-linejoin="round">
    <circle cx="70" cy="70" r="52" fill="#fffaf1" stroke-width="8" />
    <circle cx="70" cy="70" r="25" stroke="#7fa39a" stroke-width="9" />
    <path d="M70 46v24l18 14" stroke-width="7" />
    <path d="M36 19a72 72 0 0 1 68 0" stroke="#d69666" stroke-width="7" opacity=".75" />
  </g>

  <g fill="none" stroke="#d69666" stroke-linecap="round" stroke-linejoin="round">
    <path d="M940 244c0-29 46-33 46-2 0 24-28 23-28 47" stroke-width="12" />
    <path d="M958 326v1" stroke-width="14" />
    <path d="M210 210c0-24 38-28 38-2 0 20-23 20-23 40" stroke-width="9" opacity=".55" />
    <path d="M225 278v1" stroke-width="11" opacity=".55" />
  </g>

  <g opacity=".48">
    <circle cx="150" cy="456" r="7" fill="#7fa39a" />
    <circle cx="1066" cy="468" r="8" fill="#d69666" />
    <circle cx="1018" cy="112" r="6" fill="#7fa39a" />
    <circle cx="198" cy="112" r="5" fill="#d69666" />
  </g>
</svg>
