<svg xmlns="http://www.w3.org/2000/svg" viewBox="0 0 1200 640" role="img" aria-labelledby="title desc">
  <title id="title">Calm smart home living room illustration</title>
  <desc id="desc">A comfortable suburban living room with simple smart home devices arranged in a calm, beginner-friendly way</desc>
  <defs>
    <linearGradient id="wall" x1="0" y1="0" x2="1" y2="1">
      <stop offset="0" stop-color="#f7efe5" />
      <stop offset="1" stop-color="#e7f0ed" />
    </linearGradient>
    <linearGradient id="rug" x1="0" y1="0" x2="1" y2="0">
      <stop offset="0" stop-color="#d8e7dd" />
      <stop offset="1" stop-color="#f2d7bf" />
    </linearGradient>
    <filter id="softShadow" x="-20%" y="-20%" width="140%" height="140%">
      <feDropShadow dx="0" dy="12" stdDeviation="14" flood-color="#51645d" flood-opacity=".18" />
    </filter>
  </defs>

  <rect width="1200" height="640" fill="url(#wall)" />
  <rect y="458" width="1200" height="182" fill="#d8c5ad" opacity=".38" />
  <ellipse cx="608" cy="538" rx="392" ry="56" fill="url(#rug)" opacity=".82" />

  <g fill="none" stroke="#5c6f68" stroke-linecap="round" stroke-linejoin="round">
    <path d="M315 268 486 142l171 126" stroke-width="12" opacity=".92" />
    <path d="M355 263v166h263V263" stroke-width="12" opacity=".92" />
    <path d="M438 429V318h96v111" stroke-width="10" opacity=".86" />
    <path d="M385 254h203" stroke-width="8" opacity=".28" />
  </g>

  <g filter="url(#softShadow)">
    <rect x="300" y="430" width="440" height="56" rx="20" fill="#6f8a7f" />
    <rect x="336" y="356" width="348" height="88" rx="36" fill="#8fb1a3" />
    <rect x="370" y="379" width="92" height="52" rx="16" fill="#f4dfc7" />
    <rect x="522" y="379" width="92" height="52" rx="16" fill="#f4dfc7" />
    <path d="M310 484h38M692 484h38" stroke="#52655f" stroke-width="14" stroke-linecap="round" />
  </g>

  <g fill="none" stroke="#4d645d" stroke-linecap="round" stroke-linejoin="round">
    <path d="M791 458h128" stroke-width="10" />
    <path d="M817 458V321" stroke-width="9" />
    <path d="M781 322h72l-20 74h-32z" fill="#f2d7bf" stroke-width="8" />
    <path d="M770 298h94" stroke-width="8" />
    <path d="M775 458c0-34 26-61 58-61s58 27 58 61" stroke-width="7" opacity=".34" />
  </g>

  <g transform="translate(704 178)" filter="url(#softShadow)">
    <circle cx="72" cy="72" r="54" fill="#f7efe5" stroke="#5c6f68" stroke-width="8" />
    <circle cx="72" cy="72" r="26" fill="none" stroke="#7fa39a" stroke-width="9" />
    <path d="M72 48v24l18 14" fill="none" stroke="#5c6f68" stroke-width="7" stroke-linecap="round" />
    <path d="M38 19a73 73 0 0 1 68 0" fill="none" stroke="#d89d72" stroke-width="7" stroke-linecap="round" opacity=".7" />
  </g>

  <g transform="translate(844 209)" fill="none" stroke="#5c6f68" stroke-linecap="round" stroke-linejoin="round">
    <path d="M63 0c38 21 63 53 63 101 0 54-35 89-63 101C35 190 0 155 0 101 0 53 25 21 63 0z" fill="#dfece7" stroke-width="8" opacity=".94" />
    <path d="M40 100h46" stroke-width="8" />
    <path d="M47 100V78c0-17 11-29 26-29s26 12 26 29v22" stroke-width="8" />
  </g>

  <g transform="translate(231 317)" fill="none" stroke="#5c6f68" stroke-linecap="round" stroke-linejoin="round">
    <rect x="0" y="78" width="62" height="86" rx="19" fill="#f7efe5" stroke-width="8" />
    <path d="M22 78V39M40 78V39" stroke-width="8" />
    <path d="M12 39h38" stroke-width="8" />
    <path d="M62 121c40 0 43-50 82-50" stroke-width="7" opacity=".6" />
    <circle cx="161" cy="71" r="9" fill="#d89d72" stroke="none" />
  </g>

  <g fill="none" stroke="#7a968c" stroke-linecap="round" opacity=".72">
    <path d="M957 172c34 17 54 47 54 83" stroke-width="7" />
    <path d="M957 207c18 11 28 28 28 49" stroke-width="7" />
    <path d="M686 257c-28-17-58-17-86 0" stroke-width="7" />
    <path d="M665 286c-14-9-29-9-44 0" stroke-width="7" />
    <path d="M228 243c24-16 49-16 73 0" stroke-width="7" />
  </g>

  <g opacity=".5">
    <circle cx="196" cy="182" r="8" fill="#d89d72" />
    <circle cx="1025" cy="381" r="7" fill="#7fa39a" />
    <circle cx="102" cy="489" r="6" fill="#7fa39a" />
    <circle cx="1090" cy="144" r="5" fill="#d89d72" />
  </g>
</svg>
